<?xml version="1.0" standalone="no"?>
<!DOCTYPE svg PUBLIC "-//W3C//DTD SVG 20010904//EN"
 "http://www.w3.org/TR/2001/REC-SVG-20010904/DTD/svg10.dtd">
<svg version="1.0" xmlns="http://www.w3.org/2000/svg"
 width="407.000000pt" height="407.000000pt" viewBox="0 0 407.000000 407.000000"
 preserveAspectRatio="xMidYMid meet">
<metadata>
Created by potrace 1.11, written by Peter Selinger 2001-2013
</metadata>
<g transform="translate(0.000000,407.000000) scale(0.100000,-0.100000)"
fill="#000000" stroke="none">
<path d="M717 2922 c-27 -30 -5 -72 38 -72 30 0 46 31 31 61 -15 30 -47 35
-69 11z"/>
<path d="M876 2924 c-19 -18 -19 -16 -6 -48 7 -20 17 -26 39 -26 23 0 31 6 39
29 8 24 7 32 -7 45 -22 20 -45 20 -65 0z"/>
<path d="M2568 2929 c-36 -21 -16 -79 27 -79 12 0 26 5 33 12 7 7 12 21 12 33
0 40 -35 56 -72 34z"/>
<path d="M2722 2928 c-7 -7 -12 -21 -12 -33 0 -12 5 -26 12 -33 27 -27 78 -7
78 29 0 39 -52 63 -78 37z"/>
<path d="M3662 2928 c-30 -30 -3 -83 39 -76 32 5 45 31 31 62 -13 28 -49 35
-70 14z"/>
<path d="M3817 2922 c-33 -37 29 -94 68 -62 15 13 10 60 -8 72 -20 13 -43 9
-60 -10z"/>
<path d="M21 2791 c-20 -20 -21 -31 -21 -289 0 -288 1 -295 52 -307 19 -5 32
-1 47 14 18 18 21 33 21 99 l0 78 49 48 50 49 91 -141 c76 -117 97 -142 121
-147 20 -5 38 -1 55 10 39 26 27 59 -77 207 -49 71 -92 135 -95 142 -3 7 33
51 82 98 74 74 85 89 79 109 -10 32 -15 36 -49 45 -27 7 -37 -2 -168 -136
l-138 -144 0 120 c0 130 -6 148 -52 159 -19 5 -32 1 -47 -14z"/>
<path d="M795 2788 c-34 -31 -227 -520 -219 -555 8 -29 38 -47 69 -39 17 4 30
24 51 73 15 38 29 70 31 72 1 2 56 4 120 5 l118 1 29 -68 c33 -78 60 -99 100
-77 49 26 48 31 -104 404 -68 165 -76 179 -106 192 -45 19 -59 18 -89 -8z m69
-155 c4 -16 20 -63 37 -105 16 -43 29 -81 29 -86 0 -4 -38 -8 -85 -7 -47 0
-85 0 -85 1 0 1 18 52 40 115 22 63 40 115 40 117 0 14 19 -14 24 -35z"/>
<path d="M1832 2785 c-18 -23 -19 -40 -18 -287 2 -145 6 -271 10 -280 13 -28
65 -34 89 -10 16 17 20 35 22 102 l1 82 50 45 c43 39 50 43 59 28 5 -9 46 -71
90 -138 58 -89 88 -125 108 -132 45 -15 85 21 74 66 -4 14 -50 87 -103 163
l-97 138 87 85 c59 59 86 93 86 109 0 25 -34 54 -64 54 -12 0 -72 -55 -155
-141 l-136 -141 -1 122 c0 116 -1 124 -23 141 -31 26 -56 24 -79 -6z"/>
<path d="M2583 2800 c-83 -19 -146 -69 -185 -149 -19 -39 -22 -62 -22 -151 0
-94 3 -110 26 -156 30 -57 84 -109 137 -132 43 -18 152 -24 205 -12 104 23
188 118 202 229 23 172 -33 300 -154 354 -49 21 -154 30 -209 17z m157 -110
c29 -15 45 -33 65 -75 24 -49 27 -64 23 -129 -8 -123 -70 -196 -167 -196 -110
0 -178 99 -167 240 12 144 128 220 246 160z"/>
<path d="M3074 2793 c-17 -12 -18 -36 -19 -271 -1 -141 2 -269 7 -283 5 -15
19 -30 31 -33 12 -3 97 -6 189 -6 138 0 169 3 182 16 18 17 20 42 6 64 -7 12
-40 16 -152 20 l-142 5 -1 232 c0 212 -2 233 -19 252 -20 22 -55 24 -82 4z"/>
<path d="M3753 2800 c-28 -12 -36 -28 -123 -250 -39 -102 -79 -200 -87 -219
-25 -54 -28 -105 -8 -121 22 -18 54 -23 70 -10 7 6 23 36 35 68 13 31 28 62
35 67 7 6 57 9 111 8 135 -2 134 -2 134 -14 0 -6 12 -38 26 -70 19 -42 34 -61
51 -65 30 -8 73 20 73 47 0 18 -48 151 -84 232 -8 18 -37 91 -66 162 -28 72
-59 138 -68 147 -21 22 -70 31 -99 18z m127 -365 c0 -1 -144 2 -161 4 -14 1
-11 15 18 94 59 160 49 158 99 22 24 -65 44 -119 44 -120z"/>
<path d="M1243 2789 c-12 -7 -23 -24 -26 -43 -10 -59 -5 -501 6 -521 20 -41
63 -47 92 -15 16 18 19 38 19 135 l1 114 50 -5 c63 -6 81 -23 157 -147 75
-121 100 -138 149 -98 23 18 23 21 10 58 -19 52 -75 139 -113 173 l-31 29 47
21 c58 28 85 65 92 127 7 65 -25 129 -81 157 -34 18 -61 21 -195 23 -97 2
-163 -1 -177 -8z m295 -98 c28 -15 42 -48 35 -85 -9 -45 -42 -59 -146 -60
l-92 -1 -1 75 c0 41 1 78 3 82 6 12 176 2 201 -11z"/>
<path d="M3087 1869 c-20 -28 -10 -58 21 -66 35 -8 57 9 55 43 -4 46 -50 60
-76 23z"/>
<path d="M3245 1870 c-15 -17 -16 -24 -7 -46 10 -20 18 -25 43 -22 42 4 57 40
29 68 -25 25 -42 25 -65 0z"/>
<path d="M1122 1750 c-51 -21 -38 -60 75 -231 l68 -104 5 -123 c4 -107 8 -125
24 -138 27 -19 60 -18 80 5 13 14 17 42 19 132 l2 114 83 128 c45 70 87 139
92 153 19 50 -29 90 -73 61 -13 -8 -54 -65 -91 -126 -38 -61 -70 -111 -72
-111 -1 0 -32 49 -69 110 -57 95 -96 142 -115 139 -3 0 -15 -4 -28 -9z"/>
<path d="M1681 1741 c-20 -20 -21 -31 -21 -289 0 -226 2 -271 16 -290 17 -25
51 -29 80 -8 16 12 20 31 24 137 l5 122 125 1 125 1 5 -123 c4 -107 8 -126 24
-138 28 -20 60 -17 81 6 16 17 17 43 17 272 0 139 -1 261 -1 271 -1 30 -37 56
-68 51 -15 -3 -32 -10 -38 -15 -5 -6 -12 -59 -13 -118 l-4 -108 -126 1 -127 1
-5 107 c-3 59 -9 111 -15 117 -23 22 -63 23 -84 2z"/>
<path d="M3194 1753 c-12 -2 -29 -12 -37 -21 -15 -17 -198 -471 -211 -524 -13
-56 67 -93 98 -45 8 12 22 46 32 75 21 58 7 54 162 54 51 0 96 -2 99 -6 4 -3
18 -34 32 -68 14 -33 33 -65 42 -71 22 -14 61 -2 77 23 15 25 2 65 -118 358
-70 170 -88 206 -111 218 -16 8 -32 13 -36 13 -4 -1 -18 -4 -29 -6z m36 -156
c0 -7 16 -52 35 -101 19 -49 35 -95 35 -101 0 -9 -25 -12 -84 -12 l-84 1 13
40 c41 127 68 195 76 190 5 -3 9 -11 9 -17z"/>
<path d="M594 1725 l-24 -24 0 -261 c0 -247 1 -261 20 -280 25 -25 62 -26 84
-1 14 16 17 39 17 130 1 77 4 111 12 112 75 9 117 -15 167 -95 70 -113 95
-150 111 -159 22 -14 66 -1 80 24 15 29 -38 136 -100 199 l-46 47 49 24 c58
28 84 66 91 130 6 62 -23 119 -77 149 -39 22 -55 24 -201 26 -156 3 -160 2
-183 -21z m294 -79 c32 -11 53 -61 40 -98 -15 -41 -42 -51 -146 -54 l-93 -3 2
77 c1 42 3 79 5 83 4 8 165 4 192 -5z"/>
<path d="M2321 1737 c-14 -6 -27 -23 -31 -37 -4 -20 -5 -439 -1 -512 1 -25 29
-48 56 -48 48 0 54 27 52 248 -1 111 0 202 3 202 3 0 27 -87 54 -192 26 -106
52 -203 57 -216 18 -48 96 -54 120 -9 7 12 36 114 65 227 l52 205 1 -210 c1
-228 7 -255 55 -255 53 0 55 14 57 304 1 222 -2 271 -14 283 -16 16 -111 25
-143 13 -26 -10 -33 -28 -85 -227 -23 -90 -44 -162 -45 -160 -2 2 -25 85 -52
186 -27 100 -54 187 -59 192 -16 16 -115 20 -142 6z"/>
</g>
</svg>
