<svg width="93.54mm" height="9.5085mm" version="1.1" viewBox="0 0 93.54 9.5085" xmlns="http://www.w3.org/2000/svg">
 <g transform="translate(-28.27 -99.95)" fill="#f5970f">
  <g aria-label="KÄRKÖLÄ-RYHMÄ">
   <path d="m29.805 102.55v2.6562l3.0127-3.1419q0.21704-0.22738 0.3669-0.3359 0.15503-0.10852 0.40824-0.10852 0.33073 0 0.53227 0.19637 0.20671 0.1912 0.20671 0.47025 0 0.3359-0.34623 0.66663l-1.8655 1.7673 2.1497 3.0799q0.22738 0.32039 0.34106 0.56327 0.11369 0.23771 0.11369 0.46509 0 0.25321-0.20154 0.43925-0.19637 0.18603-0.53743 0.18603-0.32039 0-0.52193-0.13435-0.20154-0.13953-0.34106-0.36691-0.13953-0.22737-0.24805-0.41341l-1.8138-2.7905-1.2557 1.2041v1.5658q0 0.47542-0.21704 0.70797-0.21704 0.22737-0.5581 0.22737-0.19637 0-0.37724-0.10335-0.18087-0.10335-0.27905-0.27905-0.07235-0.14469-0.08785-0.3359-0.0155-0.1912-0.0155-0.55294v-5.6327q0-0.46508 0.20154-0.69763 0.20671-0.23254 0.55811-0.23254 0.34623 0 0.5581 0.23254 0.21704 0.22738 0.21704 0.69763z"/>
   <path d="m40.941 108.47-0.36174-0.95085h-3.0799l-0.36174 0.97152q-0.21187 0.56844-0.36174 0.76997-0.14986 0.19637-0.49093 0.19637-0.28939 0-0.5116-0.21187t-0.22221-0.48059q0-0.15503 0.05168-0.32039 0.05168-0.16537 0.17053-0.45992l1.9379-4.9196q0.08268-0.21187 0.19637-0.50643 0.11886-0.29972 0.24805-0.49609 0.13436-0.19637 0.34623-0.31523 0.21704-0.12402 0.53227-0.12402 0.32039 0 0.53227 0.12402 0.21704 0.11886 0.34623 0.31006 0.13436 0.1912 0.22221 0.41341 0.09302 0.21704 0.23254 0.58395l1.9792 4.8886q0.23254 0.5581 0.23254 0.81132 0 0.26355-0.22221 0.48575-0.21704 0.21704-0.5271 0.21704-0.18087 0-0.31006-0.0672-0.12919-0.062-0.21704-0.17054-0.08785-0.11368-0.1912-0.34106-0.09819-0.23255-0.17053-0.40824zm-3.0386-2.1032h2.2634l-1.142-3.1264zm-0.10852-5.2555q-0.22221 0-0.40308-0.15503-0.1757-0.15503-0.1757-0.42374 0-0.25839 0.17053-0.41858 0.17053-0.16537 0.40824-0.16537 0.23254 0 0.40824 0.14986 0.1757 0.1447 0.1757 0.43409 0 0.26871-0.1757 0.42374-0.1757 0.15503-0.40824 0.15503zm2.0154-1.1627q0.14469 0 0.28422 0.07752 0.13953 0.0775 0.21704 0.21704 0.07751 0.13952 0.07751 0.28939 0 0.26871-0.17053 0.42374t-0.40824 0.15503q-0.22738 0-0.40824-0.15503-0.1757-0.15503-0.1757-0.42374 0-0.23255 0.1757-0.40825 0.1757-0.1757 0.40824-0.1757z"/>
   <path d="m45.763 106.09h-0.53744v2.434q0 0.48059-0.21187 0.70797-0.21187 0.22737-0.55294 0.22737-0.3669 0-0.56844-0.23771t-0.20154-0.69763v-5.8291q0-0.49609 0.22221-0.7183 0.22221-0.22221 0.7183-0.22221h2.496q0.51676 0 0.88367 0.0465 0.3669 0.0413 0.66146 0.1757 0.35657 0.14986 0.63045 0.42891t0.41341 0.65113q0.14469 0.3669 0.14469 0.78031 0 0.84749-0.48059 1.3539-0.47542 0.50643-1.4469 0.7183 0.40824 0.21705 0.78031 0.64079 0.37207 0.42375 0.66146 0.90434 0.29456 0.47542 0.45475 0.863 0.16536 0.3824 0.16536 0.5271 0 0.14986-0.09819 0.29972-0.09302 0.14469-0.25838 0.22737-0.16536 0.0879-0.38241 0.0879-0.25838 0-0.43408-0.12402-0.1757-0.11885-0.30489-0.30489-0.12402-0.18603-0.34106-0.54777l-0.61495-1.0232q-0.33073-0.56328-0.59428-0.85783-0.25838-0.29456-0.5271-0.40308-0.26872-0.10852-0.67696-0.10852zm0.8785-3.1833h-1.4159v2.0826h1.3746q0.55294 0 0.93018-0.093 0.37724-0.0982 0.57361-0.32557 0.20154-0.23254 0.20154-0.63562 0-0.31522-0.1602-0.55293-0.1602-0.24288-0.44442-0.36174-0.26872-0.11369-1.0594-0.11369z"/>
   <path d="m52.853 102.55v2.6562l3.0127-3.1419q0.21704-0.22738 0.3669-0.3359 0.15503-0.10852 0.40824-0.10852 0.33073 0 0.53227 0.19637 0.20671 0.1912 0.20671 0.47025 0 0.3359-0.34623 0.66663l-1.8655 1.7673 2.1497 3.0799q0.22738 0.32039 0.34106 0.56327 0.11369 0.23771 0.11369 0.46509 0 0.25321-0.20154 0.43925-0.19637 0.18603-0.53744 0.18603-0.32039 0-0.52193-0.13435-0.20154-0.13953-0.34106-0.36691-0.13953-0.22737-0.24805-0.41341l-1.8138-2.7905-1.2557 1.2041v1.5658q0 0.47542-0.21704 0.70797-0.21704 0.22737-0.55811 0.22737-0.19637 0-0.37724-0.10335-0.18087-0.10335-0.27905-0.27905-0.07235-0.14469-0.08785-0.3359-0.0155-0.1912-0.0155-0.55294v-5.6327q0-0.46508 0.20154-0.69763 0.20671-0.23254 0.5581-0.23254 0.34623 0 0.55811 0.23254 0.21704 0.22738 0.21704 0.69763z"/>
   <path d="m62.067 101.62q1.1782 0 2.0205 0.48059 0.84749 0.47542 1.2816 1.3591 0.43408 0.8785 0.43408 2.0671 0 0.8785-0.23771 1.5968t-0.71314 1.2454-1.1679 0.80615-1.5865 0.27905q-0.88884 0-1.5916-0.28422-0.7028-0.28938-1.1731-0.81132-0.47026-0.52193-0.71313-1.2557-0.23771-0.73381-0.23771-1.5865 0-0.87333 0.24805-1.602 0.25322-0.72864 0.72864-1.2402 0.47542-0.5116 1.1576-0.78032 0.68213-0.27388 1.5503-0.27388zm2.1807 3.8964q0-0.83199-0.26872-1.4418-0.26872-0.60978-0.76998-0.91984-0.49609-0.31523-1.142-0.31523-0.45992 0-0.85266 0.1757-0.38757 0.17053-0.67179 0.50126-0.27905 0.33073-0.44442 0.8475-0.1602 0.51159-0.1602 1.1524 0 0.64596 0.1602 1.1679 0.16536 0.52193 0.45992 0.86816 0.29972 0.34107 0.68213 0.5116 0.38757 0.17053 0.84749 0.17053 0.58911 0 1.08-0.29455 0.49609-0.29456 0.78548-0.90951 0.29456-0.61495 0.29456-1.5141zm-2.9972-4.408q-0.22221 0-0.40308-0.15503-0.1757-0.15503-0.1757-0.42374 0-0.25839 0.17053-0.41858 0.17053-0.16537 0.40824-0.16537 0.23254 0 0.40824 0.14986 0.1757 0.1447 0.1757 0.43409 0 0.26871-0.1757 0.42374t-0.40824 0.15503zm2.0154-1.1627q0.14469 0 0.28422 0.07752 0.13953 0.0775 0.21704 0.21704 0.07751 0.13952 0.07751 0.28939 0 0.26871-0.17053 0.42374-0.17053 0.15503-0.40824 0.15503-0.22738 0-0.40824-0.15503-0.1757-0.15503-0.1757-0.42374 0-0.23255 0.1757-0.40825 0.1757-0.1757 0.40824-0.1757z"/>
   <path d="m68.624 102.55v5.5139h3.1109q0.37207 0 0.56844 0.18087 0.20154 0.18086 0.20154 0.45475 0 0.27905-0.19637 0.45475-0.19637 0.17053-0.57361 0.17053h-3.7052q-0.50126 0-0.72347-0.2222-0.21704-0.22221-0.21704-0.71831v-5.8343q0-0.46508 0.20671-0.69763 0.21187-0.23254 0.55294-0.23254 0.34623 0 0.5581 0.23254 0.21704 0.22738 0.21704 0.69763z"/>
   <path d="m78.355 108.47-0.36174-0.95085h-3.0799l-0.36174 0.97152q-0.21187 0.56844-0.36174 0.76997-0.14986 0.19637-0.49093 0.19637-0.28939 0-0.5116-0.21187t-0.22221-0.48059q0-0.15503 0.05168-0.32039 0.05168-0.16537 0.17053-0.45992l1.9379-4.9196q0.08268-0.21187 0.19637-0.50643 0.11886-0.29972 0.24805-0.49609 0.13436-0.19637 0.34623-0.31523 0.21704-0.12402 0.53227-0.12402 0.32039 0 0.53227 0.12402 0.21704 0.11886 0.34623 0.31006 0.13436 0.1912 0.22221 0.41341 0.09302 0.21704 0.23254 0.58395l1.9792 4.8886q0.23254 0.5581 0.23254 0.81132 0 0.26355-0.22221 0.48575-0.21704 0.21704-0.5271 0.21704-0.18087 0-0.31006-0.0672-0.12919-0.062-0.21704-0.17054-0.08785-0.11368-0.1912-0.34106-0.09819-0.23255-0.17053-0.40824zm-3.0386-2.1032h2.2634l-1.142-3.1264zm-0.10852-5.2555q-0.22221 0-0.40308-0.15503-0.1757-0.15503-0.1757-0.42374 0-0.25839 0.17053-0.41858 0.17053-0.16537 0.40824-0.16537 0.23254 0 0.40824 0.14986 0.1757 0.1447 0.1757 0.43409 0 0.26871-0.1757 0.42374t-0.40824 0.15503zm2.0154-1.1627q0.14469 0 0.28422 0.07752 0.13953 0.0775 0.21704 0.21704 0.07751 0.13952 0.07751 0.28939 0 0.26871-0.17053 0.42374t-0.40824 0.15503q-0.22738 0-0.40824-0.15503-0.1757-0.15503-0.1757-0.42374 0-0.23255 0.1757-0.40825 0.1757-0.1757 0.40824-0.1757z"/>
   <path d="m82.872 107.2h-1.633q-0.37207 0-0.56844-0.17053-0.1912-0.1757-0.1912-0.44958 0-0.27906 0.18604-0.44959 0.1912-0.1757 0.57361-0.1757h1.633q0.38241 0 0.56844 0.1757 0.1912 0.17053 0.1912 0.44959 0 0.27388-0.18604 0.44958-0.18604 0.17053-0.57361 0.17053z"/>
   <path d="m86.711 106.09h-0.53744v2.434q0 0.48059-0.21187 0.70797-0.21187 0.22737-0.55294 0.22737-0.3669 0-0.56844-0.23771t-0.20154-0.69763v-5.8291q0-0.49609 0.22221-0.7183 0.22221-0.22221 0.7183-0.22221h2.496q0.51676 0 0.88367 0.0465 0.3669 0.0413 0.66146 0.1757 0.35657 0.14986 0.63045 0.42891 0.27389 0.27905 0.41341 0.65113 0.14469 0.3669 0.14469 0.78031 0 0.84749-0.48059 1.3539-0.47542 0.50643-1.4469 0.7183 0.40824 0.21705 0.78031 0.64079 0.37207 0.42375 0.66146 0.90434 0.29456 0.47542 0.45475 0.863 0.16536 0.3824 0.16536 0.5271 0 0.14986-0.09819 0.29972-0.09302 0.14469-0.25838 0.22737-0.16536 0.0879-0.3824 0.0879-0.25838 0-0.43408-0.12402-0.1757-0.11885-0.30489-0.30489-0.12402-0.18603-0.34106-0.54777l-0.61495-1.0232q-0.33073-0.56328-0.59428-0.85783-0.25838-0.29456-0.5271-0.40308-0.26872-0.10852-0.67696-0.10852zm0.8785-3.1833h-1.4159v2.0826h1.3746q0.55294 0 0.93018-0.093 0.37724-0.0982 0.57361-0.32557 0.20154-0.23254 0.20154-0.63562 0-0.31522-0.1602-0.55293-0.1602-0.24288-0.44442-0.36174-0.26872-0.11369-1.0594-0.11369z"/>
   <path d="m93.538 108.52v-2.403l-1.85-2.868q-0.24288-0.38758-0.34623-0.60462-0.09819-0.21704-0.09819-0.37724 0-0.26355 0.20154-0.45475 0.2067-0.1912 0.50643-0.1912 0.31523 0 0.47542 0.18087 0.16536 0.1757 0.49093 0.70796l1.4159 2.2996 1.4314-2.2996q0.12919-0.21187 0.21704-0.35656 0.08785-0.1447 0.1912-0.26872 0.10852-0.12919 0.23771-0.19637 0.12919-0.0672 0.31523-0.0672 0.28939 0 0.48059 0.1912 0.19637 0.18604 0.19637 0.43408 0 0.20154-0.09819 0.40308t-0.3359 0.5581l-1.8965 2.9094v2.403q0 0.47026-0.21704 0.7028t-0.55294 0.23254q-0.34106 0-0.55294-0.22737-0.21187-0.23255-0.21187-0.70797z"/>
   <path d="m100 102.55v2.1704h3.3125v-2.1704q0-0.46508 0.2067-0.69763 0.21188-0.23254 0.55294-0.23254 0.34623 0 0.55811 0.23254 0.21704 0.22738 0.21704 0.69763v5.9686q0 0.47026-0.21704 0.7028t-0.55811 0.23254q-0.34623 0-0.55294-0.23254-0.2067-0.23771-0.2067-0.7028v-2.5476h-3.3125v2.5476q0 0.47026-0.21704 0.7028-0.21704 0.23254-0.55811 0.23254-0.34623 0-0.55294-0.23254-0.20671-0.23771-0.20671-0.7028v-5.9686q0-0.46508 0.20154-0.69763 0.20671-0.23254 0.5581-0.23254 0.34623 0 0.55811 0.23254 0.21704 0.22738 0.21704 0.69763z"/>
   <path d="m109.06 108.19-1.2144-4.8266v5.2296q0 0.43408-0.19637 0.65112-0.19121 0.21704-0.5116 0.21704-0.31006 0-0.50643-0.21187-0.19637-0.21704-0.19637-0.65629v-5.9945q0-0.49609 0.25838-0.66662 0.25839-0.1757 0.69764-0.1757h0.47542q0.42891 0 0.62012 0.0775 0.19637 0.0775 0.28938 0.27906 0.093 0.20153 0.21188 0.65629l1.1007 4.1496 1.1007-4.1496q0.11886-0.45476 0.21188-0.65629 0.093-0.20154 0.28422-0.27906 0.19637-0.0775 0.62528-0.0775h0.47542q0.43925 0 0.69764 0.1757 0.25838 0.17053 0.25838 0.66662v5.9945q0 0.43408-0.19637 0.65112-0.1912 0.21704-0.51677 0.21704-0.30489 0-0.50126-0.21704t-0.19637-0.65112v-5.2296l-1.2144 4.8266q-0.11886 0.47026-0.19637 0.69247-0.0724 0.21704-0.27389 0.39791-0.20154 0.18086-0.55811 0.18086-0.26871 0-0.45475-0.11885-0.18603-0.11369-0.28939-0.29456-0.10335-0.18086-0.16536-0.39791-0.0568-0.2222-0.11886-0.45992z"/>
   <path d="m120.17 108.47-0.36174-0.95085h-3.0799l-0.36174 0.97152q-0.21187 0.56844-0.36173 0.76997-0.14986 0.19637-0.49093 0.19637-0.28939 0-0.51159-0.21187-0.22221-0.21187-0.22221-0.48059 0-0.15503 0.0517-0.32039 0.0517-0.16537 0.17054-0.45992l1.9379-4.9196q0.0827-0.21187 0.19637-0.50643 0.11886-0.29972 0.24805-0.49609 0.13436-0.19637 0.34623-0.31523 0.21704-0.12402 0.53227-0.12402 0.32039 0 0.53227 0.12402 0.21704 0.11886 0.34623 0.31006 0.13436 0.1912 0.22221 0.41341 0.093 0.21704 0.23254 0.58395l1.9792 4.8886q0.23254 0.5581 0.23254 0.81132 0 0.26355-0.22221 0.48575-0.21704 0.21704-0.5271 0.21704-0.18086 0-0.31005-0.0672-0.1292-0.062-0.21705-0.17054-0.0878-0.11368-0.1912-0.34106-0.0982-0.23255-0.17053-0.40824zm-3.0386-2.1032h2.2634l-1.142-3.1264zm-0.10853-5.2555q-0.2222 0-0.40307-0.15503-0.1757-0.15503-0.1757-0.42374 0-0.25839 0.17053-0.41858 0.17053-0.16537 0.40824-0.16537 0.23255 0 0.40825 0.14986 0.1757 0.1447 0.1757 0.43409 0 0.26871-0.1757 0.42374t-0.40825 0.15503zm2.0154-1.1627q0.14469 0 0.28422 0.07752 0.13952 0.0775 0.21704 0.21704 0.0775 0.13952 0.0775 0.28939 0 0.26871-0.17053 0.42374t-0.40824 0.15503q-0.22738 0-0.40825-0.15503-0.1757-0.15503-0.1757-0.42374 0-0.23255 0.1757-0.40825 0.1757-0.1757 0.40825-0.1757z"/>
  </g>
  <text x="27.433174" y="118.96803" font-family="sans-serif" font-size="10.583px" letter-spacing="0px" stroke-width=".165" word-spacing="0px" style="line-height:1.25" xml:space="preserve"><tspan x="27.433174" y="128.62354" fill="#f5970f" font-family="'Arial Rounded MT Bold'" stroke="#000000" stroke-width=".165"/></text>
 </g>
</svg>
